<?xml version="1.0" encoding="iso-8859-1"?>
<!-- Generator: Adobe Illustrator 22.0.0, SVG Export Plug-In . SVG Version: 6.00 Build 0)  -->
<svg xmlns="http://www.w3.org/2000/svg" xmlns:xlink="http://www.w3.org/1999/xlink" version="1.1" x="0px" y="0px" viewBox="0 0 64 64" style="enable-background:new 0 0 64 64;" xml:space="preserve" width="512" height="512">
<g id="color">
	<polygon style="fill:#5AAAE7;" points="19,7 45,7 52,38 52,40 38,40 32,26 17,61 7,58  "/>
	<rect x="19" y="3" style="fill:#FFD422;" width="26" height="4"/>
	<path style="fill:#1E81CE;" d="M43,14h3.5806274L45,7h-6v3C39,12.2091064,40.7908325,14,43,14z"/>
	<path style="fill:#1E81CE;" d="M25,10V7h-6l-1.6470337,7H21C23.2091675,14,25,12.2091064,25,10z"/>
	<rect x="24" y="3" style="fill:#5AAAE7;" width="2" height="4"/>
	<rect x="38" y="3" style="fill:#5AAAE7;" width="2" height="4"/>
	<rect x="30" y="3" style="fill:#E6E6E6;" width="4" height="4"/>
	<polygon style="fill:#1E81CE;" points="32,7 32,27 36,24 36,7  "/>
	<polygon style="fill:#1E81CE;" points="52,40 32,40 32,49 42,51 52,41.9999886 52,40  "/>
	<path style="fill:none;stroke:#000000;stroke-width:2;stroke-miterlimit:10;" d="M52,37"/>
</g>
<g id="Layer_3">
	<path d="M18,2v4.8840332L5.8105469,58.6875l11.7568359,3.5268555L32,28.5385742L36.4836426,39H31v10.8198242l11.2958984,2.2592773   L53,42.4453125V41v-2v-1L46,6.8897095V2H18z M31,6V4h2v2H31z M29,6h-3V4h3V6z M33,8h2v15.5L33,25V8z M35,6V4h3v2H35z M40,8   h4.2001953l1.1290894,5H43c-1.6542969,0-3-1.3457031-3-3V8z M44,6h-4V4h4V6z M20,4h4v2h-4V4z M24,8v2c0,1.6542969-1.3457031,3-3,3   h-2.3844604l1.1764526-5H24z M16.4326172,59.7856445L8.1894531,57.3125L18.1450195,15H21c2.7568359,0,5-2.2431641,5-5V8h5   v17.7947998L16.4326172,59.7856445z M51,41.5546875l-9.2958984,8.3662109L33,48.1801758V41h4.3408203H51V41.5546875z M51,39   H38.6591797l-5.1061401-11.9147339L37,24.5V8h1v2c0,2.7568359,2.2431641,5,5,5h2.7809448L51,38.1113281V39z"/>
</g>
</svg>
